<?xml version="1.0" encoding="utf-8"?>
<!-- Generator: Adobe Illustrator 22.0.1, SVG Export Plug-In . SVG Version: 6.00 Build 0)  -->
<svg version="1.1" id="Calque_1" xmlns="http://www.w3.org/2000/svg" xmlns:xlink="http://www.w3.org/1999/xlink" x="0px" y="0px"
	 viewBox="0 0 220 66.2" style="enable-background:new 0 0 220 66.2;" xml:space="preserve">
<style type="text/css">
	.st0{fill:#C32126;}
</style>
<g>
	<path class="st0" d="M218.2,2.5c0-0.4-0.1-0.6-0.3-0.8c-0.2-0.2-0.5-0.3-1-0.3h-1.1v3.9h0.2V3.6h0.9c0.3,0,0.5,0.1,0.6,0.2
		c0.1,0.1,0.2,0.3,0.2,0.6v0.3c0,0.1,0,0.3,0,0.4c0,0.1,0,0.2,0.1,0.3h0.3V5.3c0-0.1,0-0.2-0.1-0.3c0-0.1,0-0.2,0-0.3V4.4
		c0-0.2,0-0.4-0.1-0.6c-0.1-0.2-0.2-0.3-0.4-0.4c0.2-0.1,0.4-0.2,0.5-0.4C218.1,3,218.2,2.8,218.2,2.5z M217.6,3.2
		c-0.2,0.1-0.4,0.2-0.7,0.2H216V1.7h0.8c0.4,0,0.7,0.1,0.8,0.2c0.2,0.1,0.2,0.4,0.2,0.6C217.9,2.8,217.8,3,217.6,3.2z"/>
	<path class="st0" d="M219.1,1c-0.6-0.7-1.4-1-2.2-1c-0.9,0-1.6,0.3-2.2,1c-0.6,0.7-0.9,1.5-0.9,2.5c0,1,0.3,1.8,0.9,2.5
		c0.6,0.7,1.4,1,2.2,1c0.9,0,1.6-0.3,2.2-1c0.6-0.7,0.9-1.5,0.9-2.5C220,2.5,219.7,1.7,219.1,1z M218.9,5.7
		c-0.6,0.6-1.3,0.9-2.1,0.9c-0.8,0-1.5-0.3-2.1-0.9c-0.6-0.6-0.9-1.4-0.9-2.3c0-0.9,0.3-1.6,0.9-2.3c0.6-0.6,1.3-0.9,2.1-0.9
		c0.8,0,1.5,0.3,2.1,0.9c0.6,0.6,0.9,1.4,0.9,2.3C219.8,4.3,219.5,5.1,218.9,5.7z"/>
	<path class="st0" d="M50,6.5H7.5C3.4,6.5,0,9.9,0,14v44.8c0,4.1,3.4,7.5,7.5,7.5h21.1c-8.5,0-14.4-3.4-17-9.5l4-2.5
		c1.6,4.8,6.1,7.4,12.9,7.4c6.8,0,11.3-2.6,12.9-7.4l4,2.5c-2.5,6.1-8.5,9.5-17,9.5H50c4.1,0,7.5-3.4,7.5-7.5V14
		C57.4,9.9,54.1,6.5,50,6.5z M51.2,37.6c0,0.1,0,0.1,0,0.2c0,3.7-3,6.7-6.7,6.7c-3.7,0-6.7-3-6.7-6.7c0-0.1,0-0.1,0-0.2H19.6
		c0,0.1,0,0.1,0,0.2c0,3.7-3,6.7-6.7,6.7c-3.7,0-6.7-3-6.7-6.7c0-0.1,0-0.1,0-0.2H0c0-14.3,8.3-25.9,28.7-25.9s28.7,11.6,28.7,25.9
		H51.2z"/>
	<path class="st0" d="M28.7,16.4c-14.9,0-20.9,7.3-20.9,16.2h1h8.3h23.3h8.3h1C49.7,23.6,43.6,16.4,28.7,16.4z"/>
	<polygon class="st0" points="80.2,47.6 88.7,47.6 88.7,43.3 84.7,43.3 84.7,19.8 96,47.6 97.9,47.6 109.3,19.9 109.3,47.6 
		118.4,47.6 118.4,43.3 114.2,43.3 114.2,16.3 118.4,16.3 118.4,12 108,12 97.1,38.3 86.2,12 75.9,12 75.9,16.3 80.2,16.3 	"/>
	<path class="st0" d="M147.4,16.7c-3.4-3.5-7.8-5.2-12.9-5.2c-5.1,0-9.5,1.8-12.9,5.2c-3.4,3.5-5.1,7.9-5.1,13.1
		c0,5.2,1.7,9.6,5.1,13.1c3.4,3.5,7.7,5.2,12.9,5.2c5.1,0,9.4-1.8,12.9-5.2l0,0c3.4-3.5,5.1-7.9,5.1-13.1S150.7,20.1,147.4,16.7z
		 M143.9,39.7c-2.4,2.6-5.6,3.9-9.4,3.9c-3.8,0-6.9-1.3-9.3-3.9c-2.5-2.6-3.7-5.9-3.7-9.9c0-4,1.3-7.4,3.7-9.9
		c2.4-2.6,5.6-3.9,9.3-3.9c3.8,0,7,1.3,9.4,3.9c2.4,2.6,3.7,5.9,3.7,9.9C147.6,33.8,146.3,37.1,143.9,39.7z"/>
	<path class="st0" d="M157.8,45c0.7,0.7,1.6,1.3,2.6,1.8c1.9,0.9,3.9,1.3,5.8,1.3c3.3,0,6.1-1,8.3-2.9c2.3-1.9,3.5-4.4,3.5-7.4
		c0-3-0.9-5.4-2.8-7.1c-1.8-1.6-5-3-9.7-4.2c-2.4-0.6-4.2-1.3-5.6-2.2c-1.2-0.8-1.7-1.9-1.7-3.4c0-1.4,0.5-2.5,1.6-3.4
		c1.2-1,2.7-1.4,4.4-1.4c1.2,0,2.3,0.1,3.2,0.2c0.9,0.1,1.7,0.5,2.4,1.1c0.3,0.2,0.6,0.6,0.8,0.9c0.3,0.4,0.4,0.8,0.6,1.2
		c0.1,0.4,0.2,0.8,0.3,1.2c0.1,0.4,0.1,0.7,0.1,0.9v1.7h4.8l0-0.7c0-0.7-0.1-1.3-0.1-1.8c-0.1-0.5-0.1-1-0.2-1.6
		c-0.1-0.6-0.3-1.1-0.5-1.5c-0.3-0.6-0.5-1-0.8-1.4c-0.2-0.3-0.6-0.7-0.9-1.1c-0.7-0.7-1.4-1.3-2-1.7c-0.6-0.3-1.3-0.7-2.1-1.1
		c-0.9-0.4-1.8-0.6-2.7-0.7c-0.9-0.1-1.8-0.2-2.6-0.2c-2.9,0-5.5,0.9-7.6,2.6c-2.1,1.8-3.2,4-3.2,6.6c0,2.9,0.9,5.1,2.7,6.8
		c0.9,0.8,2,1.5,3.4,2.1c1.3,0.6,2.9,1.1,4.7,1.6c3.4,0.8,5.7,1.7,7,2.7c1.2,0.9,1.7,2.1,1.7,3.6c0,1.8-0.6,3.2-1.9,4.3
		c-1.3,1.2-3,1.8-5,1.8c-2.4,0-4.3-0.7-6-2.2c-1.6-1.5-2.4-3.2-2.4-5.1V34h-4.4v13.6h4.4V45z"/>
	<path class="st0" d="M209,33.5c-0.7,2-1.5,3.7-2.4,4.9c-0.8,1.2-1.8,2.2-2.8,2.9c-2,1.5-4.5,2.2-7.4,2.2c-3.7,0-6.8-1.3-9.3-3.8
		c-2.4-2.6-3.7-5.9-3.7-10c0-4,1.2-7.3,3.6-10c2.4-2.5,5.5-3.8,9.2-3.8c2.7,0,5.1,0.7,7.3,2.2c1.1,0.7,1.9,1.6,2.6,2.6
		c0.7,1,1.1,2.2,1.4,3.6l0.1,0.6h4.3v-9.9h-4.4v0.8c-1.3-1.2-2.7-2.1-4.3-2.8c-2.3-1-4.6-1.5-6.9-1.5c-5.2,0-9.5,1.7-12.8,5.1
		c-3.3,3.4-4.9,7.9-4.9,13.2c0,5.4,1.7,9.9,4.9,13.3c3.3,3.4,7.6,5.1,12.9,5.1c3.7,0,7.1-1,9.9-2.8c1.5-1,2.8-2.3,3.9-3.8
		c1.1-1.5,2.1-3.5,3-5.7l0.2-0.5l-4.1-2.5L209,33.5z"/>
	<polygon class="st0" points="80.8,59.9 78.1,53.4 76.1,53.4 76.1,53.9 77.1,53.9 77.1,60.7 77.1,61.2 78.6,61.2 78.6,60.7 
		77.6,60.7 77.6,53.7 80.7,61.2 80.8,61.2 83.9,53.7 83.9,60.7 83.9,61.2 85.5,61.2 85.5,60.7 84.5,60.7 84.5,53.9 85.5,53.9 
		85.5,53.4 83.5,53.4 	"/>
	<path class="st0" d="M88.3,55.6c-0.8,0-1.4,0.3-1.9,0.8c-0.5,0.5-0.8,1.2-0.8,2c0,0.8,0.3,1.5,0.8,2c0.5,0.5,1.2,0.8,1.9,0.8
		c0.8,0,1.4-0.3,1.9-0.8c0.5-0.6,0.8-1.2,0.8-2c0-0.8-0.3-1.5-0.8-2C89.7,55.9,89.1,55.6,88.3,55.6z M89.8,60.1
		c-0.4,0.4-0.9,0.7-1.5,0.7c-0.6,0-1.1-0.2-1.5-0.7c-0.4-0.4-0.6-1-0.6-1.7c0-0.7,0.2-1.2,0.6-1.7c0.4-0.4,0.9-0.7,1.5-0.7
		c0.6,0,1.1,0.2,1.5,0.7c0.4,0.4,0.6,1,0.6,1.7C90.4,59.1,90.2,59.7,89.8,60.1z"/>
	<path class="st0" d="M94.8,55.6c-0.4,0-0.8,0.1-1.1,0.3c-0.4,0.2-0.7,0.5-1,1v-3.5h-1.6v0.5h1v6.8v0.5h0.6v-1.1
		c0.3,0.4,0.6,0.7,1,0.9c0.3,0.2,0.7,0.3,1.1,0.3c0.8,0,1.5-0.3,2-0.8s0.8-1.2,0.8-2.1c0-0.8-0.3-1.5-0.8-2
		C96.2,55.9,95.6,55.6,94.8,55.6z M96.3,60.1c-0.4,0.4-0.9,0.7-1.5,0.7c-0.6,0-1.1-0.2-1.5-0.6c-0.4-0.4-0.6-1-0.6-1.7
		c0-0.7,0.2-1.2,0.6-1.7c0.4-0.4,0.9-0.7,1.5-0.7c0.6,0,1.1,0.2,1.5,0.7c0.4,0.4,0.6,1,0.6,1.6C96.9,59.1,96.7,59.7,96.3,60.1z"/>
	<path class="st0" d="M98.2,53.4c-0.1,0.1-0.1,0.2-0.1,0.3c0,0.1,0,0.2,0.1,0.3c0.1,0.1,0.2,0.1,0.3,0.1c0.1,0,0.2,0,0.3-0.1
		C99,54,99,53.8,99,53.7c0-0.1,0-0.2-0.1-0.3c-0.1-0.1-0.2-0.1-0.3-0.1C98.4,53.3,98.3,53.3,98.2,53.4z"/>
	<polygon class="st0" points="99,55.7 97.5,55.7 97.5,56.3 98.4,56.3 98.4,60.7 98.4,60.7 98.4,61.2 99.9,61.2 99.9,60.7 99,60.7 	
		"/>
	<polygon class="st0" points="101.7,53.4 100.1,53.4 100.1,53.9 101.1,53.9 101.1,60.7 101.1,61.2 102.7,61.2 102.7,60.7 
		101.7,60.7 	"/>
	<polygon class="st0" points="104.2,55.7 102.7,55.7 102.7,56.3 103.6,56.3 103.6,60.7 103.7,60.7 103.7,61.2 105.2,61.2 
		105.2,60.7 104.2,60.7 	"/>
	<path class="st0" d="M103.5,53.4c-0.1,0.1-0.1,0.2-0.1,0.3c0,0.1,0,0.2,0.1,0.3c0.1,0.1,0.2,0.1,0.3,0.1c0.1,0,0.2,0,0.3-0.1
		c0.1-0.1,0.1-0.2,0.1-0.3c0-0.1,0-0.2-0.1-0.3c-0.1-0.1-0.2-0.1-0.3-0.1C103.7,53.3,103.5,53.3,103.5,53.4z"/>
	<path class="st0" d="M106.9,54.5l-0.6,0v1.2h-1v0.5h1v4c0,0.3,0.1,0.6,0.2,0.8c0.2,0.2,0.4,0.3,0.7,0.3l0.8-0.1v-0.5l-0.6,0.1
		c-0.2,0-0.3,0-0.4-0.1c-0.1-0.1-0.1-0.2-0.1-0.5v-3.9h1.1v-0.5h-1.1V54.5z"/>
	<polygon class="st0" points="110.4,55 111.8,53.2 111.1,53.2 110,55 	"/>
	<path class="st0" d="M112.8,56.4c-0.5-0.5-1.1-0.8-1.9-0.8c-0.8,0-1.5,0.3-2,0.8c-0.5,0.5-0.8,1.2-0.8,2.1c0,0.8,0.3,1.5,0.8,2.1
		c0.5,0.5,1.2,0.8,2,0.8c0.1,0,0.3,0,0.5-0.1c0.2,0,0.4-0.1,0.5-0.1c0.2,0,0.4-0.1,0.6-0.2l-0.1-0.4c-0.2,0.1-0.4,0.1-0.5,0.2
		c-0.1,0-0.3,0.1-0.4,0.1c-0.2,0-0.3,0.1-0.4,0.1c-0.7,0-1.2-0.2-1.7-0.7c-0.4-0.4-0.6-0.9-0.7-1.6h4.9
		C113.5,57.6,113.3,56.9,112.8,56.4z M109.3,56.8c0.4-0.5,0.9-0.7,1.5-0.7c0.6,0,1.1,0.2,1.5,0.5c0.4,0.4,0.6,0.9,0.7,1.4h-4.2
		C108.8,57.5,109,57.1,109.3,56.8z"/>
	<path class="st0" d="M121.4,53.3c-1.1,0-2.1,0.4-2.8,1.1c-0.7,0.8-1.1,1.7-1.1,2.9c0,1.2,0.4,2.1,1.1,2.9c0.7,0.8,1.7,1.1,2.8,1.1
		c1.1,0,2.1-0.4,2.8-1.1c0.7-0.8,1.1-1.7,1.1-2.9c0-1.2-0.4-2.1-1.1-2.9C123.4,53.6,122.5,53.3,121.4,53.3z M123.7,59.8
		c-0.6,0.7-1.4,1-2.4,1c-0.9,0-1.7-0.3-2.4-1c-0.6-0.7-0.9-1.5-0.9-2.5c0-1,0.3-1.8,0.9-2.5c0.6-0.6,1.4-1,2.4-1c1,0,1.7,0.3,2.4,1
		c0.6,0.7,0.9,1.5,0.9,2.5C124.6,58.3,124.3,59.1,123.7,59.8z"/>
	<path class="st0" d="M131,55.7h-0.6v0.5v3.5c-0.3,0.3-0.6,0.5-0.9,0.7c-0.4,0.2-0.7,0.3-1.1,0.3c-0.3,0-0.5-0.1-0.7-0.2
		c-0.2-0.2-0.2-0.4-0.2-0.7v-4.1H126v0.5h1v3.6c0,0.4,0.1,0.8,0.4,1c0.2,0.2,0.6,0.4,1,0.4c0.4,0,0.8-0.1,1.2-0.3
		c0.2-0.1,0.3-0.2,0.5-0.3c0.2-0.1,0.3-0.2,0.4-0.3v0.8h1.5v-0.5H131V55.7z"/>
	<path class="st0" d="M136.8,56.4c-0.5-0.5-1.1-0.8-1.9-0.8c-0.8,0-1.5,0.3-2,0.8c-0.5,0.5-0.8,1.2-0.8,2.1c0,0.8,0.3,1.5,0.8,2.1
		c0.5,0.5,1.2,0.8,2,0.8c0.1,0,0.3,0,0.5-0.1c0.2,0,0.4-0.1,0.5-0.1c0.2,0,0.4-0.1,0.6-0.2l-0.1-0.4c-0.2,0.1-0.4,0.1-0.5,0.2
		c-0.1,0-0.3,0.1-0.4,0.1c-0.2,0-0.3,0.1-0.4,0.1c-0.7,0-1.2-0.2-1.7-0.7c-0.4-0.4-0.6-0.9-0.7-1.6h4.9
		C137.5,57.6,137.3,56.9,136.8,56.4z M133.3,56.8c0.4-0.5,0.9-0.7,1.5-0.7c0.6,0,1.1,0.2,1.5,0.5c0.4,0.4,0.6,0.9,0.7,1.4h-4.2
		C132.8,57.5,133,57.1,133.3,56.8z"/>
	<path class="st0" d="M140.1,58.1c-0.6-0.1-1-0.2-1.2-0.4c-0.2-0.1-0.3-0.4-0.3-0.7c0-0.3,0.1-0.5,0.3-0.7c0.2-0.2,0.5-0.3,0.9-0.3
		c0.4,0,0.8,0.1,1.1,0.4c0.3,0.3,0.4,0.6,0.4,1h0.5v-1.5h-0.5v0.4c-0.2-0.3-0.4-0.4-0.7-0.6c-0.2-0.1-0.5-0.2-0.8-0.2
		c-0.5,0-0.9,0.1-1.2,0.4c-0.3,0.3-0.5,0.6-0.5,1.1c0,0.5,0.1,0.8,0.4,1c0.3,0.2,0.8,0.4,1.4,0.5c0.6,0.1,1,0.2,1.2,0.4
		c0.2,0.2,0.3,0.4,0.3,0.7c0,0.3-0.1,0.6-0.4,0.8c-0.3,0.2-0.6,0.3-1,0.3c-0.5,0-0.9-0.1-1.3-0.4c-0.3-0.3-0.5-0.7-0.5-1.2h-0.5v1.9
		h0.5v-0.7c0.2,0.3,0.5,0.5,0.7,0.7c0.3,0.1,0.6,0.2,0.9,0.2c0.6,0,1.1-0.1,1.5-0.4c0.4-0.3,0.6-0.7,0.6-1.2c0-0.4-0.1-0.8-0.4-1
		C141.5,58.5,141,58.3,140.1,58.1z"/>
	<path class="st0" d="M144.1,54.5l-0.6,0v1.2h-1v0.5h1v4c0,0.3,0.1,0.6,0.2,0.8c0.2,0.2,0.4,0.3,0.7,0.3l0.8-0.1v-0.5l-0.6,0.1
		c-0.2,0-0.3,0-0.4-0.1c-0.1-0.1-0.1-0.2-0.1-0.5v-3.9h1.1v-0.5h-1.1V54.5z"/>
	<path class="st0" d="M151.4,56.7c-0.6-0.1-1-0.3-1.4-0.6c-0.3-0.2-0.5-0.6-0.5-1c0-0.4,0.2-0.7,0.5-1c0.3-0.3,0.7-0.4,1.2-0.4
		c0.3,0,0.5,0,0.8,0.1c0.2,0,0.5,0.1,0.7,0.3c0.1,0.1,0.2,0.2,0.2,0.3c0.1,0.1,0.1,0.2,0.2,0.3c0,0.1,0.1,0.2,0.1,0.3
		c0,0.1,0,0.2,0,0.2v0.1h0.6c0,0,0-0.1,0-0.2c0-0.1,0-0.2,0-0.4c0-0.2-0.1-0.3-0.1-0.4c-0.1-0.1-0.1-0.2-0.2-0.3
		c0-0.1-0.1-0.2-0.2-0.2c-0.1-0.2-0.3-0.3-0.4-0.3c-0.1-0.1-0.3-0.2-0.5-0.2c-0.2-0.1-0.4-0.1-0.6-0.1c-0.2,0-0.4,0-0.6,0
		c-0.6,0-1.2,0.2-1.6,0.6c-0.4,0.4-0.7,0.8-0.7,1.4c0,0.6,0.2,1.1,0.6,1.4c0.4,0.3,1,0.6,1.8,0.8c0.8,0.2,1.4,0.4,1.7,0.7
		c0.3,0.3,0.5,0.6,0.5,1c0,0.5-0.2,0.9-0.5,1.2c-0.4,0.3-0.8,0.5-1.3,0.5c-0.6,0-1.1-0.2-1.6-0.6c-0.4-0.4-0.6-0.8-0.6-1.4v-0.3
		h-0.5v2.7h0.5v-1c0.1,0.2,0.3,0.4,0.4,0.5c0.2,0.1,0.3,0.3,0.5,0.4c0.4,0.2,0.8,0.3,1.2,0.3c0.7,0,1.3-0.2,1.8-0.6
		c0.5-0.4,0.7-0.9,0.7-1.5c0-0.6-0.2-1.1-0.6-1.5C153.2,57.3,152.4,57,151.4,56.7z"/>
	<path class="st0" d="M159.1,55.7h-0.6v0.5v3.5c-0.3,0.3-0.6,0.5-0.9,0.7c-0.4,0.2-0.7,0.3-1.1,0.3c-0.3,0-0.5-0.1-0.7-0.2
		c-0.2-0.2-0.2-0.4-0.2-0.7v-4.1h-1.5v0.5h1v3.6c0,0.4,0.1,0.8,0.4,1c0.2,0.2,0.6,0.4,1,0.4c0.4,0,0.8-0.1,1.2-0.3
		c0.2-0.1,0.3-0.2,0.5-0.3c0.2-0.1,0.3-0.2,0.4-0.3v0.8h1.5v-0.5h-0.9V55.7z"/>
	<path class="st0" d="M165.6,53.4H165v0.5v3c-0.3-0.5-0.6-0.8-1-1c-0.4-0.2-0.8-0.3-1.1-0.3c-0.8,0-1.4,0.3-1.9,0.8
		c-0.5,0.5-0.7,1.2-0.7,2.1c0,0.8,0.3,1.5,0.8,2c0.5,0.5,1.2,0.8,1.9,0.8c0.4,0,0.8-0.1,1.1-0.3c0.4-0.2,0.7-0.5,1-0.9v1.1h1.6v-0.5
		h-1V53.4z M164.4,60.1c-0.4,0.4-0.9,0.7-1.5,0.7c-0.6,0-1.1-0.2-1.5-0.7c-0.4-0.5-0.6-1-0.6-1.6c0-0.7,0.2-1.2,0.6-1.7
		c0.4-0.5,0.9-0.7,1.5-0.7c0.6,0,1.1,0.2,1.5,0.7c0.4,0.5,0.6,1,0.6,1.7C165,59.1,164.8,59.7,164.4,60.1z"/>
	<path class="st0" d="M175.9,60.2c-0.5,0.4-1.1,0.6-1.9,0.6c-1,0-1.7-0.3-2.3-1c-0.6-0.7-0.9-1.5-0.9-2.5c0-1,0.3-1.8,0.9-2.5
		c0.6-0.6,1.4-1,2.3-1c0.7,0,1.3,0.2,1.8,0.6c0.6,0.4,0.9,0.9,1,1.5h0.5v-1.8h-0.5v0.6c-0.4-0.5-0.8-0.9-1.3-1.1
		c-0.5-0.2-1-0.3-1.5-0.3c-1.1,0-2.1,0.4-2.8,1.1c-0.7,0.7-1.1,1.7-1.1,2.9c0,1.2,0.4,2.2,1.1,2.9c0.7,0.7,1.6,1.1,2.8,1.1
		c0.8,0,1.5-0.2,2.2-0.6c0.6-0.4,1.1-1.1,1.5-2l-0.5-0.3C176.9,59.2,176.5,59.8,175.9,60.2z"/>
	<path class="st0" d="M182.5,57c0-0.4-0.1-0.8-0.4-1c-0.3-0.3-0.6-0.4-1.1-0.4c-0.4,0-0.8,0.1-1.1,0.2c-0.4,0.2-0.7,0.4-1,0.6v-3.1
		h-1.6v0.5h1v6.8h0v0.5h1.5v-0.5H179v-3.6c0.3-0.3,0.6-0.5,1-0.7c0.4-0.2,0.7-0.3,1-0.3c0.3,0,0.5,0.1,0.7,0.3
		c0.2,0.2,0.2,0.4,0.2,0.7v3.6v0.5h1.5v-0.5h-0.9V57z"/>
	<path class="st0" d="M188.3,57.1c0-0.5-0.2-0.9-0.5-1.2c-0.3-0.3-0.8-0.4-1.5-0.4c-0.1,0-0.3,0-0.5,0.1c-0.2,0-0.3,0.1-0.5,0.1
		s-0.3,0.1-0.5,0.2l0.1,0.4c0.2-0.1,0.3-0.1,0.4-0.1c0.1,0,0.3-0.1,0.4-0.1c0.1,0,0.3,0,0.4,0c0.4,0,0.8,0.1,1.1,0.3
		c0.3,0.2,0.4,0.5,0.4,0.9v1.3c-0.3-0.2-0.6-0.3-0.9-0.3c-0.3-0.1-0.5-0.1-0.8-0.1c-0.6,0-1.1,0.2-1.5,0.5c-0.4,0.3-0.6,0.7-0.6,1.2
		c0,0.4,0.2,0.8,0.5,1.1c0.3,0.3,0.7,0.5,1.2,0.5c0.3,0,0.6-0.1,1-0.2c0.3-0.1,0.7-0.4,1-0.6v0.8h1.5v-0.5h-0.9V57.1z M187.7,59.9
		c-0.2,0.3-0.5,0.5-0.8,0.6c-0.3,0.2-0.7,0.3-1,0.3c-0.4,0-0.7-0.1-0.9-0.3c-0.2-0.2-0.3-0.5-0.3-0.8c0-0.4,0.1-0.7,0.4-0.9
		c0.3-0.2,0.6-0.4,1.1-0.4c0.3,0,0.5,0,0.8,0.1c0.2,0.1,0.5,0.2,0.7,0.3V59.9z"/>
	<path class="st0" d="M191.3,56.7c0.4-0.3,1-0.5,1.7-0.5h0.2v-0.6l-0.2,0c-0.1,0-0.3,0-0.4,0c-0.1,0-0.3,0-0.4,0.1
		c-0.1,0-0.3,0.1-0.4,0.1c-0.1,0-0.2,0.1-0.3,0.1c-0.1,0.1-0.3,0.2-0.4,0.3c-0.1,0.1-0.2,0.2-0.3,0.3c-0.1,0.1-0.1,0.1-0.1,0.2v-1
		h-1.6v0.5h1v4.4v0.5h1.7v-0.5h-1.1v-2.4C190.8,57.5,191,57,191.3,56.7z"/>
	<path class="st0" d="M198,56.4c-0.5-0.5-1.1-0.8-1.9-0.8c-0.8,0-1.5,0.3-2,0.8c-0.5,0.5-0.8,1.2-0.8,2.1c0,0.8,0.3,1.5,0.8,2.1
		c0.5,0.5,1.2,0.8,2,0.8c0.1,0,0.3,0,0.5-0.1c0.2,0,0.4-0.1,0.5-0.1c0.2,0,0.4-0.1,0.6-0.2l-0.1-0.4c-0.2,0.1-0.4,0.1-0.5,0.2
		c-0.1,0-0.3,0.1-0.4,0.1c-0.2,0-0.3,0.1-0.4,0.1c-0.7,0-1.2-0.2-1.7-0.7c-0.4-0.4-0.6-0.9-0.7-1.6h4.9
		C198.7,57.6,198.5,56.9,198,56.4z M194.5,56.8c0.4-0.5,0.9-0.7,1.5-0.7c0.6,0,1.1,0.2,1.5,0.5c0.4,0.4,0.6,0.9,0.7,1.4h-4.2
		C194,57.5,194.2,57.1,194.5,56.8z"/>
	<path class="st0" d="M203.8,57c0-0.4-0.1-0.8-0.4-1c-0.3-0.3-0.6-0.4-1-0.4c-0.4,0-0.7,0.1-1.1,0.2c-0.4,0.2-0.7,0.4-1,0.6v-0.7
		h-1.6v0.5h1v4.4v0.5h1.5v-0.5h-0.9v-3.6c0.3-0.3,0.6-0.5,1-0.7c0.4-0.2,0.7-0.3,1-0.3c0.3,0,0.5,0.1,0.7,0.3
		c0.2,0.2,0.2,0.4,0.2,0.7v3.6v0.5h1.5v-0.5h-0.9V57z"/>
	<path class="st0" d="M206.3,54.5l-0.6,0v1.2h-1v0.5h1v4c0,0.3,0.1,0.6,0.2,0.8c0.2,0.2,0.4,0.3,0.7,0.3l0.8-0.1v-0.5l-0.6,0.1
		c-0.2,0-0.3,0-0.4-0.1c-0.1-0.1-0.1-0.2-0.1-0.5v-3.9h1.1v-0.5h-1.1V54.5z"/>
	<path class="st0" d="M212.3,56.4c-0.5-0.5-1.1-0.8-1.9-0.8c-0.8,0-1.5,0.3-2,0.8c-0.5,0.5-0.8,1.2-0.8,2.1c0,0.8,0.3,1.5,0.8,2.1
		c0.5,0.5,1.2,0.8,2,0.8c0.1,0,0.3,0,0.5-0.1c0.2,0,0.4-0.1,0.5-0.1c0.2,0,0.4-0.1,0.6-0.2l-0.1-0.4c-0.2,0.1-0.4,0.1-0.5,0.2
		c-0.1,0-0.3,0.1-0.4,0.1c-0.2,0-0.3,0.1-0.4,0.1c-0.7,0-1.2-0.2-1.7-0.7c-0.4-0.4-0.6-0.9-0.7-1.6h4.9
		C213,57.6,212.8,56.9,212.3,56.4z M208.8,56.8c0.4-0.5,0.9-0.7,1.5-0.7c0.6,0,1.1,0.2,1.5,0.5c0.4,0.4,0.6,0.9,0.7,1.4h-4.2
		C208.3,57.5,208.5,57.1,208.8,56.8z"/>
</g>
</svg>
